<svg width="1583" height="598" viewBox="0 0 1583 598" fill="none" xmlns="http://www.w3.org/2000/svg">
<path d="M-196.286 119.612C-143.786 40.7783 14.9144 -69.5883 229.714 119.612C348.714 224.429 566.214 435.612 871.714 167.112C1177.21 -101.388 1435.21 -27.3884 1608.71 267.112C1782.21 561.612 1998.21 651.112 2292.71 330.112" stroke="url(#paint0_linear_4_1528)" stroke-opacity="0.5"/>
<path d="M-225.547 126.685C-173.047 47.8513 -14.3474 -62.5153 200.453 126.685C319.453 231.502 536.953 442.685 842.453 174.185C1147.95 -94.3154 1405.95 -20.3154 1579.45 274.185C1752.95 568.685 1968.95 658.185 2263.45 337.185" stroke="url(#paint1_linear_4_1528)" stroke-opacity="0.5"/>
<path d="M-254.809 133.757C-202.309 54.9241 -43.6093 -55.4426 171.191 133.757C290.191 238.575 507.691 449.757 813.191 181.257C1118.69 -87.2426 1376.69 -13.2426 1550.19 281.257C1723.69 575.757 1939.69 665.257 2234.19 344.257" stroke="url(#paint2_linear_4_1528)" stroke-opacity="0.5"/>
<path d="M-284.071 140.83C-231.571 61.9971 -72.8713 -48.3696 141.929 140.83C260.929 245.648 478.429 456.83 783.929 188.33C1089.43 -80.1696 1347.43 -6.16965 1520.93 288.33C1694.43 582.83 1910.43 672.33 2204.93 351.33" stroke="url(#paint3_linear_4_1528)" stroke-opacity="0.5"/>
<path d="M-313.333 147.903C-260.833 69.0698 -102.133 -41.2968 112.667 147.903C231.667 252.721 449.167 463.903 754.667 195.403C1060.17 -73.0969 1318.17 0.903107 1491.67 295.403C1665.17 589.903 1881.17 679.403 2175.67 358.403" stroke="url(#paint4_linear_4_1528)" stroke-opacity="0.5"/>
<path d="M-342.595 154.976C-290.095 76.1428 -131.395 -34.2238 83.4048 154.976C202.405 259.794 419.905 470.976 725.405 202.476C1030.9 -66.0239 1288.9 7.9761 1462.4 302.476C1635.9 596.976 1851.9 686.476 2146.4 365.476" stroke="url(#paint5_linear_4_1528)" stroke-opacity="0.5"/>
<path d="M-371.857 162.049C-319.357 83.2156 -160.657 -27.1511 54.1431 162.049C173.143 266.866 390.643 478.049 696.143 209.549C1001.64 -58.9511 1259.64 15.0489 1433.14 309.549C1606.64 604.049 1822.64 693.549 2117.14 372.549" stroke="url(#paint6_linear_4_1528)" stroke-opacity="0.5"/>
<path d="M-401.119 169.122C-348.619 90.2886 -189.919 -20.0781 24.8813 169.122C143.881 273.939 361.381 485.122 666.881 216.622C972.381 -51.8781 1230.38 22.1219 1403.88 316.622C1577.38 611.122 1793.38 700.622 2087.88 379.622" stroke="url(#paint7_linear_4_1528)" stroke-opacity="0.5"/>
<path d="M-430.381 176.195C-377.881 97.3613 -219.181 -13.0053 -4.38086 176.195C114.619 281.012 332.119 492.195 637.619 223.695C943.119 -44.8054 1201.12 29.1946 1374.62 323.695C1548.12 618.195 1764.12 707.695 2058.62 386.695" stroke="url(#paint8_linear_4_1528)" stroke-opacity="0.5"/>
<path d="M-459.643 183.268C-407.143 104.434 -248.443 -5.93232 -33.6426 183.268C85.3574 288.085 302.857 499.268 608.357 230.768C913.857 -37.7324 1171.86 36.2676 1345.36 330.768C1518.86 625.268 1734.86 714.768 2029.36 393.768" stroke="url(#paint9_linear_4_1528)" stroke-opacity="0.5"/>
<path d="M-488.905 190.34C-436.405 111.507 -277.705 1.14043 -62.9048 190.34C56.0952 295.158 273.595 506.34 579.095 237.84C884.595 -30.6596 1142.6 43.3404 1316.1 337.84C1489.6 632.34 1705.6 721.84 2000.1 400.84" stroke="url(#paint10_linear_4_1528)" stroke-opacity="0.5"/>
<path d="M-518.167 197.413C-465.667 118.58 -306.967 8.21343 -92.1665 197.413C26.8335 302.231 244.333 513.413 549.833 244.913C855.333 -23.5866 1113.33 50.4134 1286.83 344.913C1460.33 639.413 1676.33 728.913 1970.83 407.913" stroke="url(#paint11_linear_4_1528)" stroke-opacity="0.5"/>
<path d="M-547.428 204.486C-494.928 125.653 -336.228 15.2862 -121.428 204.486C-2.42822 309.304 215.072 520.486 520.572 251.986C826.072 -16.5139 1084.07 57.4861 1257.57 351.986C1431.07 646.486 1647.07 735.986 1941.57 414.986" stroke="url(#paint12_linear_4_1528)" stroke-opacity="0.5"/>
<path d="M-576.69 211.559C-524.19 132.726 -365.49 22.3592 -150.69 211.559C-31.6904 316.377 185.81 527.559 491.31 259.059C796.81 -9.44087 1054.81 64.5591 1228.31 359.059C1401.81 653.559 1617.81 743.059 1912.31 422.059" stroke="url(#paint13_linear_4_1528)" stroke-opacity="0.5"/>
<path d="M-605.952 218.632C-553.452 139.799 -394.752 29.4319 -179.952 218.632C-60.9521 323.449 156.548 534.632 462.048 266.132C767.548 -2.36812 1025.55 71.6319 1199.05 366.132C1372.55 660.632 1588.55 750.132 1883.05 429.132" stroke="url(#paint14_linear_4_1528)" stroke-opacity="0.5"/>
<path d="M-635.214 225.705C-582.714 146.872 -424.014 36.5049 -209.214 225.705C-90.2139 330.522 127.286 541.705 432.786 273.205C738.286 4.70488 996.286 78.7049 1169.79 373.205C1343.29 667.705 1559.29 757.205 1853.79 436.205" stroke="url(#paint15_linear_4_1528)" stroke-opacity="0.5"/>
<path d="M-664.476 232.778C-611.976 153.944 -453.276 43.5777 -238.476 232.778C-119.476 337.595 98.0239 548.778 403.524 280.278C709.024 11.7776 967.024 85.7776 1140.52 380.278C1314.02 674.778 1530.02 764.278 1824.52 443.278" stroke="url(#paint16_linear_4_1528)" stroke-opacity="0.5"/>
<path d="M-693.738 239.851C-641.238 161.017 -482.538 50.6507 -267.738 239.851C-148.738 344.668 68.7622 555.851 374.262 287.351C679.762 18.8506 937.762 92.8506 1111.26 387.351C1284.76 681.851 1500.76 771.351 1795.26 450.351" stroke="url(#paint17_linear_4_1528)" stroke-opacity="0.5"/>
<path d="M-723 246.923C-670.5 168.09 -511.8 57.7234 -297 246.923C-178 351.741 39.5 562.923 345 294.423C650.5 25.9234 908.5 99.9234 1082 394.423C1255.5 688.923 1471.5 778.423 1766 457.423" stroke="url(#paint18_linear_4_1528)" stroke-opacity="0.5"/>
<defs>
<linearGradient id="paint0_linear_4_1528" x1="1048.21" y1="1" x2="1048.21" y2="532.919" gradientUnits="userSpaceOnUse">
<stop stop-color="#FF0871"/>
<stop offset="1" stop-color="white"/>
</linearGradient>
<linearGradient id="paint1_linear_4_1528" x1="1018.95" y1="8.073" x2="1018.95" y2="539.992" gradientUnits="userSpaceOnUse">
<stop stop-color="#FF0871"/>
<stop offset="1" stop-color="white"/>
</linearGradient>
<linearGradient id="paint2_linear_4_1528" x1="989.691" y1="15.1458" x2="989.691" y2="547.065" gradientUnits="userSpaceOnUse">
<stop stop-color="#FF0871"/>
<stop offset="1" stop-color="white"/>
</linearGradient>
<linearGradient id="paint3_linear_4_1528" x1="960.429" y1="22.2187" x2="960.429" y2="554.138" gradientUnits="userSpaceOnUse">
<stop stop-color="#FF0871"/>
<stop offset="1" stop-color="white"/>
</linearGradient>
<linearGradient id="paint4_linear_4_1528" x1="931.167" y1="29.2915" x2="931.167" y2="561.211" gradientUnits="userSpaceOnUse">
<stop stop-color="#FF0871"/>
<stop offset="1" stop-color="white"/>
</linearGradient>
<linearGradient id="paint5_linear_4_1528" x1="901.905" y1="36.3645" x2="901.905" y2="568.284" gradientUnits="userSpaceOnUse">
<stop stop-color="#FF0871"/>
<stop offset="1" stop-color="white"/>
</linearGradient>
<linearGradient id="paint6_linear_4_1528" x1="872.643" y1="43.4373" x2="872.643" y2="575.356" gradientUnits="userSpaceOnUse">
<stop stop-color="#FF0871"/>
<stop offset="1" stop-color="white"/>
</linearGradient>
<linearGradient id="paint7_linear_4_1528" x1="843.381" y1="50.5103" x2="843.381" y2="582.429" gradientUnits="userSpaceOnUse">
<stop stop-color="#FF0871"/>
<stop offset="1" stop-color="white"/>
</linearGradient>
<linearGradient id="paint8_linear_4_1528" x1="814.119" y1="57.583" x2="814.119" y2="589.502" gradientUnits="userSpaceOnUse">
<stop stop-color="#FF0871"/>
<stop offset="1" stop-color="white"/>
</linearGradient>
<linearGradient id="paint9_linear_4_1528" x1="784.857" y1="64.656" x2="784.857" y2="596.575" gradientUnits="userSpaceOnUse">
<stop stop-color="#FF0871"/>
<stop offset="1" stop-color="white"/>
</linearGradient>
<linearGradient id="paint10_linear_4_1528" x1="755.595" y1="71.7288" x2="755.595" y2="603.648" gradientUnits="userSpaceOnUse">
<stop stop-color="#FF0871"/>
<stop offset="1" stop-color="white"/>
</linearGradient>
<linearGradient id="paint11_linear_4_1528" x1="726.333" y1="78.8018" x2="726.333" y2="610.721" gradientUnits="userSpaceOnUse">
<stop stop-color="#FF0871"/>
<stop offset="1" stop-color="white"/>
</linearGradient>
<linearGradient id="paint12_linear_4_1528" x1="697.072" y1="85.8745" x2="697.072" y2="617.794" gradientUnits="userSpaceOnUse">
<stop stop-color="#FF0871"/>
<stop offset="1" stop-color="white"/>
</linearGradient>
<linearGradient id="paint13_linear_4_1528" x1="667.81" y1="92.9475" x2="667.81" y2="624.867" gradientUnits="userSpaceOnUse">
<stop stop-color="#FF0871"/>
<stop offset="1" stop-color="white"/>
</linearGradient>
<linearGradient id="paint14_linear_4_1528" x1="638.548" y1="100.02" x2="638.548" y2="631.939" gradientUnits="userSpaceOnUse">
<stop stop-color="#FF0871"/>
<stop offset="1" stop-color="white"/>
</linearGradient>
<linearGradient id="paint15_linear_4_1528" x1="609.286" y1="107.093" x2="609.286" y2="639.012" gradientUnits="userSpaceOnUse">
<stop stop-color="#FF0871"/>
<stop offset="1" stop-color="white"/>
</linearGradient>
<linearGradient id="paint16_linear_4_1528" x1="580.024" y1="114.166" x2="580.024" y2="646.085" gradientUnits="userSpaceOnUse">
<stop stop-color="#FF0871"/>
<stop offset="1" stop-color="white"/>
</linearGradient>
<linearGradient id="paint17_linear_4_1528" x1="550.762" y1="121.239" x2="550.762" y2="653.158" gradientUnits="userSpaceOnUse">
<stop stop-color="#FF0871"/>
<stop offset="1" stop-color="white"/>
</linearGradient>
<linearGradient id="paint18_linear_4_1528" x1="521.5" y1="128.312" x2="521.5" y2="660.231" gradientUnits="userSpaceOnUse">
<stop stop-color="#FF0871"/>
<stop offset="1" stop-color="white"/>
</linearGradient>
</defs>
</svg>
